<?xml version="1.0" encoding="UTF-8" standalone="no"?>
<!-- Created with Inkscape (http://www.inkscape.org/) -->

<svg
   width="1280mm"
   height="1042.2428mm"
   viewBox="0 0 1280 1042.2428"
   version="1.1"
   id="svg1"
   xmlns="http://www.w3.org/2000/svg"
   xmlns:svg="http://www.w3.org/2000/svg">
  <defs
     id="defs1" />
  <g
     id="layer1"
     transform="translate(-4997.0487,-1557.4725)">
    <g
       id="logo-color"
       style="font-family:Signika;-inkscape-font-specification:Signika;letter-spacing:-2.53px;white-space:pre;stroke-width:0.277241"
       transform="matrix(107.23312,0,0,117.99098,3686.3416,-363.40836)"
       aria-label="S&amp;">
      <path
         style="font-weight:bold;-inkscape-font-specification:'Signika Bold';fill:#fa8606"
         d="m 12.222969,24.086516 q 0.036,-0.396 0.24,-0.792 0.216,-0.396 0.504,-0.648 1.284,0.78 2.436,0.78 0.504,0 0.732,-0.228 0.24,-0.228 0.24,-0.564 0,-0.564 -0.756,-0.888 l -1.416,-0.6 q -0.828,-0.372 -1.272,-0.888 -0.444,-0.528 -0.444,-1.332 0,-0.552 0.216,-1.008 0.228,-0.456 0.624,-0.792 0.408,-0.336 0.96,-0.516 0.552,-0.192 1.224,-0.192 1.344,0 2.712,0.684 -0.06,0.924 -0.648,1.44 -1.224,-0.588 -2.16,-0.588 -0.48,0 -0.72,0.216 -0.24,0.216 -0.24,0.492 0,0.468 0.708,0.756 l 1.44,0.612 q 0.912,0.384 1.356,0.984 0.456,0.6 0.456,1.392 0,0.564 -0.204,1.032 -0.204,0.468 -0.612,0.816 -0.396,0.336 -0.996,0.528 -0.6,0.192 -1.404,0.192 -1.56,0 -2.976,-0.888 z"
         id="path3" />
      <path
         style="font-weight:bold;-inkscape-font-specification:'Signika Bold';fill:#1f3864;stroke:#fa8606"
         d="m 22.628959,21.278516 0.012,1.596 q 0,0.468 0.012,0.948 0.024,0.468 0.072,0.972 -0.276,0.108 -0.852,0.108 -0.6,0 -0.864,-0.084 l -0.12,-0.528 q -0.78,0.684 -1.872,0.684 -0.552,0 -0.996,-0.18 -0.432,-0.18 -0.732,-0.48 -0.3,-0.312 -0.456,-0.708 -0.156,-0.408 -0.156,-0.864 0,-0.912 0.432,-1.512 0.444,-0.6 1.092,-0.804 -0.54,-0.192 -0.864,-0.672 -0.312,-0.492 -0.312,-1.14 0,-1.008 0.72,-1.596 0.72,-0.6 1.98,-0.6 0.18,0 0.588,0.024 0.408,0.024 0.816,0.096 0.42,0.072 1.056,0.288 0,0.468 -0.132,0.816 -0.12,0.348 -0.348,0.588 -0.996,-0.336 -1.608,-0.336 -1.104,0 -1.104,0.876 0,0.936 1.188,0.936 h 2.328 q 0.72,0 1.272,-0.24 0.24,0.312 0.24,0.876 0,0.936 -1.128,0.936 z m -1.836,0.744 q 0,-0.24 0,-0.42 0,-0.192 0.012,-0.324 h -0.768 q -1.404,0 -1.404,1.188 0,0.54 0.252,0.804 0.264,0.252 0.672,0.252 0.708,0 1.236,-0.456 z"
         id="path4" />
    </g>
  </g>
</svg>
